<svg width="465" height="96" viewBox="0 0 465 96" fill="none" xmlns="http://www.w3.org/2000/svg">
<g clip-path="url(#clip0_1_3)">
<path d="M133.572 47.5455C133.572 51.3864 132.834 54.642 131.357 57.3125C129.879 59.983 127.879 62.0114 125.357 63.3977C122.845 64.7841 120.027 65.4773 116.902 65.4773C113.766 65.4773 110.942 64.7784 108.43 63.3807C105.919 61.983 103.925 59.9545 102.447 57.2955C100.982 54.625 100.249 51.375 100.249 47.5455C100.249 43.7045 100.982 40.4489 102.447 37.7784C103.925 35.108 105.919 33.0795 108.43 31.6932C110.942 30.3068 113.766 29.6136 116.902 29.6136C120.027 29.6136 122.845 30.3068 125.357 31.6932C127.879 33.0795 129.879 35.108 131.357 37.7784C132.834 40.4489 133.572 43.7045 133.572 47.5455ZM124.947 47.5455C124.947 45.2727 124.624 43.3523 123.976 41.7841C123.34 40.2159 122.419 39.0284 121.215 38.2216C120.021 37.4148 118.584 37.0114 116.902 37.0114C115.232 37.0114 113.794 37.4148 112.59 38.2216C111.385 39.0284 110.459 40.2159 109.811 41.7841C109.175 43.3523 108.857 45.2727 108.857 47.5455C108.857 49.8182 109.175 51.7386 109.811 53.3068C110.459 54.875 111.385 56.0625 112.59 56.8693C113.794 57.6761 115.232 58.0795 116.902 58.0795C118.584 58.0795 120.021 57.6761 121.215 56.8693C122.419 56.0625 123.34 54.875 123.976 53.3068C124.624 51.7386 124.947 49.8182 124.947 47.5455ZM145.59 38.8182L149.902 47.4432L154.368 38.8182H162.771L155.459 51.9091L163.044 65H154.709L149.902 56.3068L145.215 65H136.76L144.362 51.9091L137.135 38.8182H145.59ZM171.673 74.8182C170.673 74.8182 169.73 74.7386 168.844 74.5795C167.957 74.4318 167.196 74.233 166.56 73.983L168.401 67.9318C169.219 68.2045 169.957 68.3636 170.617 68.4091C171.287 68.4545 171.861 68.3466 172.338 68.0852C172.827 67.8352 173.202 67.3864 173.463 66.7386L173.787 65.9545L164.48 38.8182H173.207L178.031 57.5H178.304L183.196 38.8182H191.974L182.105 67.5057C181.628 68.9375 180.952 70.1989 180.077 71.2898C179.213 72.392 178.094 73.2557 176.719 73.8807C175.355 74.5057 173.673 74.8182 171.673 74.8182ZM206.531 75.3636C204.043 75.3636 201.912 75.017 200.139 74.3239C198.367 73.6307 196.974 72.6818 195.963 71.4773C194.952 70.2727 194.344 68.9091 194.139 67.3864L202.031 66.9432C202.179 67.4773 202.452 67.9432 202.849 68.3409C203.259 68.7386 203.787 69.0455 204.435 69.2614C205.094 69.4773 205.867 69.5852 206.753 69.5852C208.151 69.5852 209.304 69.2443 210.213 68.5625C211.134 67.892 211.594 66.7159 211.594 65.0341V60.4318H211.304C210.974 61.2386 210.474 61.9602 209.804 62.5966C209.134 63.233 208.298 63.733 207.298 64.0966C206.31 64.4602 205.173 64.642 203.889 64.642C201.98 64.642 200.23 64.1989 198.639 63.3125C197.06 62.4148 195.793 61.0284 194.838 59.1534C193.895 57.267 193.423 54.8409 193.423 51.875C193.423 48.8182 193.912 46.3011 194.889 44.3239C195.867 42.3352 197.145 40.8636 198.724 39.9091C200.315 38.9545 202.026 38.4773 203.855 38.4773C205.23 38.4773 206.406 38.7159 207.384 39.1932C208.372 39.6591 209.185 40.2614 209.821 41C210.457 41.7386 210.94 42.5057 211.27 43.3011H211.509V38.8182H219.81V65.1023C219.81 67.3182 219.253 69.1875 218.139 70.7102C217.026 72.233 215.469 73.3864 213.469 74.1705C211.469 74.9659 209.156 75.3636 206.531 75.3636ZM206.787 58.5739C207.798 58.5739 208.662 58.3068 209.378 57.7727C210.094 57.2386 210.645 56.4716 211.031 55.4716C211.418 54.4716 211.611 53.2727 211.611 51.875C211.611 50.4545 211.418 49.233 211.031 48.2102C210.656 47.1761 210.105 46.3807 209.378 45.8239C208.662 45.267 207.798 44.9886 206.787 44.9886C205.753 44.9886 204.878 45.2727 204.162 45.8409C203.446 46.4091 202.901 47.2102 202.526 48.2443C202.162 49.267 201.98 50.4773 201.98 51.875C201.98 53.2727 202.168 54.4716 202.543 55.4716C202.918 56.4716 203.457 57.2386 204.162 57.7727C204.878 58.3068 205.753 58.5739 206.787 58.5739ZM237.362 65.4943C234.624 65.4943 232.26 64.9545 230.271 63.875C228.294 62.7841 226.771 61.233 225.703 59.2216C224.646 57.1989 224.118 54.7955 224.118 52.0114C224.118 49.3068 224.652 46.9432 225.72 44.9205C226.788 42.8864 228.294 41.3068 230.237 40.1818C232.18 39.0455 234.47 38.4773 237.107 38.4773C238.97 38.4773 240.675 38.767 242.22 39.3466C243.766 39.9261 245.101 40.7841 246.226 41.9205C247.351 43.0568 248.226 44.4602 248.851 46.1307C249.476 47.7898 249.788 49.6932 249.788 51.8409V53.9205H227.033V49.0795H242.033C242.021 48.1932 241.811 47.4034 241.402 46.7102C240.993 46.017 240.43 45.4773 239.715 45.0909C239.01 44.6932 238.197 44.4943 237.277 44.4943C236.345 44.4943 235.51 44.7045 234.771 45.125C234.033 45.5341 233.447 46.0966 233.016 46.8125C232.584 47.517 232.357 48.3182 232.334 49.2159V54.142C232.334 55.2102 232.544 56.1477 232.965 56.9545C233.385 57.75 233.982 58.3693 234.754 58.8125C235.527 59.2557 236.447 59.4773 237.516 59.4773C238.254 59.4773 238.925 59.375 239.527 59.1705C240.129 58.9659 240.646 58.6648 241.078 58.267C241.51 57.8693 241.834 57.3807 242.05 56.8011L249.703 57.0227C249.385 58.7386 248.686 60.233 247.607 61.5057C246.538 62.767 245.135 63.75 243.396 64.4545C241.658 65.1477 239.646 65.4943 237.362 65.4943ZM262.381 50.0682V65H254.045V38.8182H261.972V43.625H262.261C262.841 42.0227 263.83 40.767 265.227 39.858C266.625 38.9375 268.29 38.4773 270.222 38.4773C272.063 38.4773 273.659 38.892 275.011 39.7216C276.375 40.5398 277.432 41.6875 278.182 43.1648C278.943 44.6307 279.318 46.3466 279.307 48.3125V65H270.972V49.9489C270.983 48.4943 270.614 47.358 269.864 46.5398C269.125 45.7216 268.097 45.3125 266.778 45.3125C265.903 45.3125 265.131 45.5057 264.46 45.892C263.801 46.267 263.29 46.8068 262.926 47.5114C262.574 48.2159 262.392 49.0682 262.381 50.0682ZM284.467 65V30.0909H298.888C301.501 30.0909 303.757 30.6023 305.655 31.625C307.564 32.6364 309.036 34.0511 310.07 35.8693C311.104 37.6761 311.621 39.7784 311.621 42.1761C311.621 44.5852 311.092 46.6932 310.036 48.5C308.99 50.2955 307.496 51.6875 305.553 52.6761C303.609 53.6648 301.303 54.1591 298.632 54.1591H289.734V47.5114H297.064C298.337 47.5114 299.399 47.2898 300.251 46.8466C301.115 46.4034 301.769 45.7841 302.212 44.9886C302.655 44.1818 302.876 43.2443 302.876 42.1761C302.876 41.0966 302.655 40.1648 302.212 39.3807C301.769 38.5852 301.115 37.9716 300.251 37.5398C299.388 37.108 298.325 36.892 297.064 36.892H292.905V65H284.467ZM324.115 50.0682V65H315.78V30.0909H323.842V43.625H324.132C324.723 42.0114 325.689 40.75 327.03 39.8409C328.382 38.9318 330.036 38.4773 331.99 38.4773C333.831 38.4773 335.433 38.8864 336.797 39.7045C338.161 40.5114 339.217 41.6534 339.967 43.1307C340.729 44.608 341.104 46.3352 341.092 48.3125V65H332.757V49.9489C332.769 48.4943 332.405 47.358 331.666 46.5398C330.928 45.7216 329.888 45.3125 328.547 45.3125C327.672 45.3125 326.899 45.5057 326.229 45.892C325.57 46.267 325.053 46.8068 324.678 47.5114C324.314 48.2159 324.126 49.0682 324.115 50.0682ZM353.676 65.4432C352.006 65.4432 350.523 65.1648 349.227 64.608C347.943 64.0398 346.926 63.1875 346.176 62.0511C345.438 60.9034 345.068 59.4659 345.068 57.7386C345.068 56.2841 345.324 55.0568 345.835 54.0568C346.347 53.0568 347.051 52.2443 347.949 51.6193C348.847 50.9943 349.881 50.5227 351.051 50.2045C352.222 49.875 353.472 49.6534 354.801 49.5398C356.29 49.4034 357.489 49.2614 358.398 49.1136C359.307 48.9545 359.966 48.733 360.375 48.4489C360.795 48.1534 361.006 47.7386 361.006 47.2045V47.1193C361.006 46.2443 360.705 45.5682 360.102 45.0909C359.5 44.6136 358.688 44.375 357.665 44.375C356.563 44.375 355.676 44.6136 355.006 45.0909C354.335 45.5682 353.909 46.2273 353.727 47.0682L346.04 46.7955C346.267 45.2045 346.852 43.7841 347.795 42.5341C348.75 41.2727 350.057 40.2841 351.716 39.5682C353.386 38.8409 355.392 38.4773 357.733 38.4773C359.403 38.4773 360.943 38.6761 362.352 39.0739C363.761 39.4602 364.989 40.0284 366.034 40.7784C367.08 41.517 367.886 42.4261 368.455 43.5057C369.034 44.5852 369.324 45.8182 369.324 47.2045V65H361.483V61.3523H361.278C360.813 62.2386 360.216 62.9886 359.489 63.6023C358.773 64.2159 357.926 64.6761 356.949 64.983C355.983 65.2898 354.892 65.4432 353.676 65.4432ZM356.25 59.9886C357.148 59.9886 357.955 59.8068 358.67 59.4432C359.398 59.0795 359.977 58.5795 360.409 57.9432C360.841 57.2955 361.057 56.5455 361.057 55.6932V53.2045C360.818 53.3295 360.528 53.4432 360.188 53.5455C359.858 53.6477 359.494 53.7443 359.097 53.8352C358.699 53.9261 358.29 54.0057 357.869 54.0739C357.449 54.142 357.045 54.2045 356.659 54.2614C355.875 54.3864 355.205 54.5795 354.648 54.8409C354.102 55.1023 353.682 55.4432 353.386 55.8636C353.102 56.2727 352.96 56.7614 352.96 57.3295C352.96 58.1932 353.267 58.8523 353.881 59.3068C354.506 59.7614 355.295 59.9886 356.25 59.9886ZM374.42 65V38.8182H382.517V43.5909H382.79C383.267 41.8636 384.045 40.5795 385.125 39.7386C386.205 38.8864 387.46 38.4602 388.892 38.4602C389.278 38.4602 389.676 38.4886 390.085 38.5455C390.494 38.5909 390.875 38.6648 391.227 38.767V46.0114C390.83 45.875 390.307 45.767 389.659 45.6875C389.023 45.608 388.455 45.5682 387.955 45.5682C386.966 45.5682 386.074 45.7898 385.278 46.233C384.494 46.6648 383.875 47.2727 383.42 48.0568C382.977 48.8295 382.756 49.7386 382.756 50.7841V65H374.42ZM394.624 65V38.8182H402.55V43.625H402.84C403.385 42.0341 404.305 40.7784 405.601 39.858C406.896 38.9375 408.442 38.4773 410.237 38.4773C412.055 38.4773 413.612 38.9432 414.908 39.875C416.203 40.8068 417.027 42.0568 417.379 43.625H417.652C418.141 42.0682 419.095 40.8239 420.516 39.892C421.936 38.9489 423.612 38.4773 425.544 38.4773C428.021 38.4773 430.033 39.2727 431.578 40.8636C433.124 42.4432 433.896 44.6136 433.896 47.375V65H425.561V49.2841C425.561 47.9773 425.226 46.983 424.555 46.3011C423.885 45.608 423.016 45.2614 421.947 45.2614C420.8 45.2614 419.896 45.6364 419.237 46.3864C418.59 47.125 418.266 48.1193 418.266 49.3693V65H410.254V49.1989C410.254 47.983 409.925 47.0227 409.266 46.3182C408.607 45.6136 407.737 45.2614 406.658 45.2614C405.93 45.2614 405.288 45.4375 404.732 45.7898C404.175 46.1307 403.737 46.6193 403.419 47.2557C403.112 47.892 402.959 48.642 402.959 49.5057V65H394.624ZM446.442 65.4432C444.771 65.4432 443.288 65.1648 441.993 64.608C440.709 64.0398 439.692 63.1875 438.942 62.0511C438.203 60.9034 437.834 59.4659 437.834 57.7386C437.834 56.2841 438.09 55.0568 438.601 54.0568C439.112 53.0568 439.817 52.2443 440.715 51.6193C441.612 50.9943 442.646 50.5227 443.817 50.2045C444.987 49.875 446.237 49.6534 447.567 49.5398C449.055 49.4034 450.254 49.2614 451.163 49.1136C452.072 48.9545 452.732 48.733 453.141 48.4489C453.561 48.1534 453.771 47.7386 453.771 47.2045V47.1193C453.771 46.2443 453.47 45.5682 452.868 45.0909C452.266 44.6136 451.453 44.375 450.43 44.375C449.328 44.375 448.442 44.6136 447.771 45.0909C447.101 45.5682 446.675 46.2273 446.493 47.0682L438.805 46.7955C439.033 45.2045 439.618 43.7841 440.561 42.5341C441.516 41.2727 442.822 40.2841 444.482 39.5682C446.152 38.8409 448.158 38.4773 450.499 38.4773C452.169 38.4773 453.709 38.6761 455.118 39.0739C456.527 39.4602 457.754 40.0284 458.8 40.7784C459.845 41.517 460.652 42.4261 461.22 43.5057C461.8 44.5852 462.09 45.8182 462.09 47.2045V65H454.249V61.3523H454.044C453.578 62.2386 452.982 62.9886 452.254 63.6023C451.538 64.2159 450.692 64.6761 449.715 64.983C448.749 65.2898 447.658 65.4432 446.442 65.4432ZM449.016 59.9886C449.913 59.9886 450.72 59.8068 451.436 59.4432C452.163 59.0795 452.743 58.5795 453.175 57.9432C453.607 57.2955 453.822 56.5455 453.822 55.6932V53.2045C453.584 53.3295 453.294 53.4432 452.953 53.5455C452.624 53.6477 452.26 53.7443 451.862 53.8352C451.465 53.9261 451.055 54.0057 450.635 54.0739C450.215 54.142 449.811 54.2045 449.425 54.2614C448.641 54.3864 447.97 54.5795 447.413 54.8409C446.868 55.1023 446.447 55.4432 446.152 55.8636C445.868 56.2727 445.726 56.7614 445.726 57.3295C445.726 58.1932 446.033 58.8523 446.646 59.3068C447.271 59.7614 448.061 59.9886 449.016 59.9886Z" fill="#21284E"/>
<path d="M81.9816 30.0871V65.9129C81.9816 82.4897 68.594 96 52.0172 96H30.0871C13.3876 96 0 82.4897 0 65.9129V30.0871C0 13.5103 13.3876 0 30.0871 0H52.0172C68.594 0 81.9816 13.5103 81.9816 30.0871ZM57.2478 36.9736C57.2478 30.4726 51.8945 25.1193 45.3935 25.1193H36.7195C30.0958 25.1193 24.7338 30.4726 24.7338 36.9736V58.6496C24.7338 65.2821 30.0871 70.6354 36.7195 70.6354H45.3935C51.8945 70.6354 57.2478 65.2821 57.2478 58.6496V36.9736Z" fill="#21284E"/>
<path d="M30.3323 77.4433C34.6518 77.9778 51.7718 78.5648 58.4656 60.0166C63.4246 46.2873 65.2382 36.5533 65.8515 32.4354C65.9479 31.8133 65.1681 31.4541 64.7476 31.9272C62.1542 34.9324 56.1087 41.1356 48.2234 43.9655C37.6132 47.768 24.9966 47.3212 21.9213 57.6423C18.8372 67.9633 20.1514 75.8487 20.1514 75.8487C20.1514 75.8487 21.8687 76.4007 30.3323 77.4433Z" fill="#49BCCE"/>
<path d="M11.6529 76.8208C11.6529 76.8208 29.614 72.5978 37.2628 68.1732C44.9116 63.7486 51.7982 57.4141 51.7982 57.4141L49.3187 61.1728C49.3187 61.1728 40.9426 71.9231 28.3874 75.0422C15.8409 78.1614 11.6441 76.8296 11.6441 76.8296L11.6529 76.8208Z" fill="#A8E9FB"/>
</g>
<defs>
<clipPath id="clip0_1_3">
<rect width="464.982" height="96" fill="white"/>
</clipPath>
</defs>
</svg>
