<?xml version="1.0" encoding="UTF-8"?><svg id="Layer_2" xmlns="http://www.w3.org/2000/svg" viewBox="0 0 521.01 109.57"><defs><style>.cls-1,.cls-2,.cls-3{stroke-width:0px;}.cls-1,.cls-4{fill:#21284e;}.cls-5{letter-spacing:.01em;}.cls-2{fill:#8acfe2;}.cls-6{letter-spacing:0em;}.cls-4{font-family:NHaasGroteskDSPro-95Blk, 'Neue Haas Grotesk Display Pro';font-size:55.31px;}.cls-7{letter-spacing:0em;}.cls-8{letter-spacing:0em;}.cls-3{fill:#49bcce;}</style></defs><g id="Layer_1-2"><path class="cls-1" d="m93.57,34.34v40.89c0,18.92-15.28,34.34-34.2,34.34h-25.03C15.28,109.57,0,94.15,0,75.23v-40.89C0,15.42,15.28,0,34.34,0h25.03c18.92,0,34.2,15.42,34.2,34.34Zm-28.23,7.86c0-7.42-6.11-13.53-13.53-13.53h-9.9c-7.56,0-13.68,6.11-13.68,13.53v24.74c0,7.57,6.11,13.68,13.68,13.68h9.9c7.42,0,13.53-6.11,13.53-13.68v-24.74Z"/><path class="cls-3" d="m34.62,88.39c4.93.61,24.47,1.28,32.11-19.89,5.66-15.67,7.73-26.78,8.43-31.48.11-.71-.78-1.12-1.26-.58-2.96,3.43-9.86,10.51-18.86,13.74-12.11,4.34-26.51,3.83-30.02,15.61-3.52,11.78-2.02,20.78-2.02,20.78,0,0,1.96.63,11.62,1.82Z"/><path class="cls-2" d="m13.3,87.68s20.5-4.82,29.23-9.87c8.73-5.05,16.59-12.28,16.59-12.28l-2.83,4.29s-9.56,12.27-23.89,15.83c-14.32,3.56-19.11,2.04-19.11,2.04Z"/><text class="cls-4" transform="translate(110.26 73.23)"><tspan class="cls-8" x="0" y="0">O</tspan><tspan class="cls-5" x="41.26" y="0">x</tspan><tspan class="cls-7" x="74.17" y="0">y</tspan><tspan class="cls-6" x="104.93" y="0">genPharma</tspan></text></g></svg>